<svg width="320" height="60" viewBox="0 0 320 60" fill="none" xmlns="http://www.w3.org/2000/svg">
<path d="M105.19 51.2658L96.4558 60V17.4684L105.19 8.73419V51.2658Z" fill="#2019E2"/>
<path d="M254.563 42.5316L245.829 51.2658V8.73418L254.563 0V42.5316Z" fill="#2019E2"/>
<path d="M96.4557 17.4684H0V60H96.4557V17.4684Z" fill="#372FFF"/>
<path d="M245.829 8.73419H105.19V51.2658H245.829V8.73419Z" fill="#372FFF"/>
<path d="M319.994 0H254.563V42.5316H319.994V0Z" fill="#372FFF"/>
<path d="M31.291 29.981C30.1518 27.7595 28.4809 26.0126 26.3543 24.8354C24.2467 23.6582 21.6834 23.0506 18.7973 23.0506C15.8923 23.0506 13.348 23.6582 11.2214 24.8354C9.05683 26.0126 7.40493 27.7405 6.2467 29.981C5.10746 32.1835 4.53784 34.8797 4.53784 37.9746C4.53784 38.2405 4.55683 38.4873 4.55683 38.7341C4.55683 38.981 4.53784 39.2278 4.53784 39.4936C4.53784 42.5886 5.10746 45.2848 6.2467 47.4873C7.38594 49.7088 9.05683 51.4557 11.2024 52.6329C13.329 53.8101 15.8923 54.4177 18.7783 54.4177C21.6834 54.4177 24.2277 53.8101 26.3353 52.6329C28.4619 51.4367 30.1138 49.7088 31.272 47.4873C32.4113 45.2848 32.9809 42.5886 32.9809 39.4936C32.9809 39.2278 32.9619 38.981 32.9619 38.7341C32.9619 38.4873 32.9809 38.2405 32.9809 37.9746C32.9999 34.8797 32.4303 32.1835 31.291 29.981ZM23.867 42.6076C23.4302 43.8227 22.7657 44.7341 21.9302 45.3227C21.0948 45.9114 20.0315 46.2152 18.7783 46.2152C17.5252 46.2152 16.4619 45.9114 15.6075 45.3227C14.753 44.7341 14.1075 43.8227 13.6518 42.6076C13.253 41.5443 13.0252 40.2341 12.9682 38.7152C13.0252 37.1772 13.253 35.886 13.6518 34.8227C14.0885 33.6265 14.753 32.7341 15.6075 32.1265C16.4619 31.5379 17.5252 31.2341 18.7783 31.2341C20.0315 31.2341 21.0948 31.5379 21.9302 32.1265C22.7657 32.7152 23.4113 33.6265 23.867 34.8227C24.2657 35.886 24.4935 37.1962 24.5505 38.7152C24.4935 40.2341 24.2657 41.5443 23.867 42.6076Z" fill="black"/>
<path d="M55.8984 24.9873V39.6455L55.9364 41.1645L54.7782 38.886L45.9301 23.4683H37.063V24.9873V52.481V54H44.4681V52.481V37.8228L44.4301 36.3038L45.5883 38.5822L54.4364 54H63.3035V52.481V24.9873V23.4683H55.8984V24.9873Z" fill="black"/>
<path d="M76.8225 45.8734V42.6076H88.3858V41.0886V36.3417V34.8228H76.8225V31.5949H91.3668V30.0759V24.9873V23.4683H68.563V24.9873V52.481V54H91.9174V52.481V47.3924V45.8734H76.8225Z" fill="black"/>
<path d="M25.8985 25.6518C23.9238 24.5506 21.5314 23.9999 18.7972 23.9999C16.063 23.9999 13.6516 24.5506 11.6769 25.6708C9.70225 26.7721 8.16428 28.367 7.10099 30.4177C6.03769 32.4873 5.48706 35.0316 5.48706 37.9746C5.48706 40.9177 6.01871 43.462 7.10099 45.5316C8.16428 47.5822 9.70225 49.1961 11.6769 50.2784C13.6706 51.3797 16.063 51.9493 18.7972 51.9493C21.5314 51.9493 23.9238 51.3987 25.8985 50.2784C27.8541 49.1772 29.3921 47.5822 30.4554 45.5316C31.5187 43.462 32.0693 40.9177 32.0693 37.9746C32.0693 35.0316 31.5377 32.4873 30.4554 30.4177C29.3921 28.348 27.8541 26.7531 25.8985 25.6518ZM24.7592 42.9493C24.2466 44.3354 23.4871 45.3987 22.4807 46.1012C21.4744 46.8037 20.2402 47.1645 18.7782 47.1645C17.3162 47.1645 16.082 46.8037 15.0567 46.1012C14.0504 45.3987 13.2719 44.3354 12.7592 42.9493C12.2655 41.6012 11.9997 39.9303 11.9997 37.9746C11.9997 35.9999 12.2466 34.3291 12.7592 32.981C13.2719 31.6139 14.0504 30.5506 15.0567 29.848C16.063 29.1455 17.3162 28.7847 18.7782 28.7847C20.2402 28.7847 21.4744 29.1455 22.4807 29.848C23.4681 30.5506 24.2466 31.6139 24.7592 32.981C25.2529 34.3101 25.5187 35.9999 25.5187 37.9746C25.5187 39.9113 25.2529 41.6012 24.7592 42.9493Z" fill="white"/>
<path d="M56.8479 38.1075L57.0378 43.7658H56.2023L53.9428 39.3417L45.3795 24.4177H38.0125V51.5316H43.5188V37.8417L43.3289 32.1835H44.1644L46.4238 36.6075L54.9871 51.5316H62.3542V24.4177H56.8479V38.1075Z" fill="white"/>
<path d="M75.8732 46.8227V40.1392H87.4365V35.7721H75.8732V29.1265H90.4175V24.4177H69.5125V51.5316H90.9681V46.8227H75.8732Z" fill="white"/>
<path d="M118.937 36.6645V16.7278V15.7784V15.2088V14.2595H117.987H110.677H109.728V15.2088V15.7784V16.7278V43.2721V44.2215V44.7911V45.7405H110.677H132.057H133.006V44.7911V44.2215V43.2721V39.1329V38.1835V37.6139V36.6645H132.057H118.937ZM132.057 38.1835V38.6582V39.1329V43.2721H110.677V16.7278V16.2531V15.7784V15.2088H117.987V15.7784V16.2531V16.7278V37.6139H118.462H118.937H132.057V38.1835Z" fill="black"/>
<path d="M144.532 36.6645V34.3481H155.146H156.095V33.3987V32.8291V31.8797V28.0822V27.1329V26.5633V25.6139H155.146H144.532V23.3354H158.127H159.076V22.386V21.8164V20.8671V16.7278V15.7784V15.2088V14.2595H158.127H136.272H135.323V15.2088V15.7784V16.7278V43.2721V44.2215V44.7911V45.7405H136.272H158.677H159.627V44.7911V44.2215V43.2721V39.1329V38.1835V37.6139V36.6645H158.677H144.532Z" fill="black"/>
<path d="M190.88 14.2595H189.532H182.089H181.386L181.177 14.943L175.956 31.9746V31.9936L175.937 32.0126L175.367 34.1202L174.759 31.9177V31.8987L169.614 14.943L169.405 14.2595H168.703H161.013H159.665L160.12 15.5316L160.196 15.7784H159.665L160.12 17.0506L170.108 45.1139L170.316 45.7405H171H179.582H180.247L180.475 45.0949L190.424 17.0506L190.88 15.7784H190.329L190.424 15.5316L190.88 14.2595Z" fill="black"/>
<path d="M200.392 36.6645V34.3481H211.006H211.956V33.3987V32.8291V31.8797V28.0822V27.1329V26.5633V25.6139H211.006H200.392V23.3354H213.968H214.918V22.386V21.8164V20.8671V16.7278V15.7784V15.2088V14.2595H213.968H192.133H191.184V15.2088V15.7784V16.7278V43.2721V44.2215V44.7911V45.7405H192.133H214.519H215.468V44.7911V44.2215V43.2721V39.1329V38.1835V37.6139V36.6645H214.519H200.392Z" fill="black"/>
<path d="M240.323 36.6645H227.203V16.7278V15.7784V15.2088V14.2595H226.253H218.943H217.994V15.2088V15.7784V16.7278V43.2721V44.2215V44.7911V45.7405H218.943H240.323H241.272V44.7911V44.2215V43.2721V39.1329V38.1835V37.6139V36.6645H240.323Z" fill="black"/>
<path d="M118.462 37.6139H117.987V16.7278V16.2532V15.7785V15.2089H110.677V15.7785V16.2532V16.7278V43.2722H132.057V39.1329V38.6582V38.1835V37.6139H118.937H118.462Z" fill="white"/>
<path d="M143.582 31.8797H155.146V26.5633H143.582V20.8671H158.127V15.2089H136.272V43.2722H158.677V37.6139H143.582V31.8797Z" fill="white"/>
<path d="M176.867 32.2595L175.367 37.7089L173.848 32.1646L168.703 15.2089H161.013L171 43.2722H179.582L189.532 15.2089H182.089L176.867 32.2595Z" fill="white"/>
<path d="M199.443 31.8797H211.006V26.5633H199.443V20.8671H213.968V15.2089H192.133V43.2722H214.519V37.6139H199.443V31.8797Z" fill="white"/>
<path d="M226.253 37.6139V15.2089H218.943V43.2722H240.323V37.6139H226.253Z" fill="white"/>
<path d="M277.823 5.31641H276.873V6.26577V6.83539V7.78476V23.0126C276.873 24.7784 276.513 26.0886 275.81 26.886C275.126 27.6645 274.082 28.0443 272.601 28.0443C271.139 28.0443 270.114 27.6645 269.43 26.886C268.728 26.0696 268.367 24.7784 268.367 23.0126V7.78476V6.83539V6.26577V5.31641H267.418H260.069H259.12V6.26577V6.83539V7.78476V22.8797V24.3987C259.12 28.6139 260.297 31.8607 262.614 34.0063C264.911 36.1329 268.272 37.2151 272.601 37.2151C276.968 37.2151 280.348 36.1329 282.626 34.0063C284.924 31.8607 286.101 28.6329 286.101 24.3987V22.8797V7.78476V6.83539V6.26577V5.31641H285.152H277.823Z" fill="black"/>
<path d="M315.455 15.6265C315.455 13.481 314.981 11.6012 314.031 10.0632C313.082 8.52527 311.696 7.32906 309.911 6.51261C308.183 5.71514 306.076 5.31641 303.645 5.31641H290.772H289.823V6.26577V6.83539V7.78476V34.3291V35.2784V35.8481V36.7974H290.772H298.082H299.031V35.8481V35.2784V34.3291V27.4367H303.645C306.076 27.4367 308.183 27.0379 309.911 26.2405C311.696 25.424 313.082 24.2278 314.031 22.6898C314.962 21.1518 315.455 19.2911 315.455 17.1265C315.455 16.8607 315.455 16.6139 315.436 16.367C315.436 16.1202 315.455 15.8734 315.455 15.6265ZM305.373 17.7911C304.766 18.2848 303.816 18.5316 302.506 18.5316H299.05V14.2215H302.525C303.816 14.2215 304.785 14.4683 305.392 14.962C305.791 15.2848 306.038 15.7594 306.152 16.386C306.038 16.9936 305.772 17.4683 305.373 17.7911Z" fill="black"/>
<path d="M277.823 23.0126C277.823 25.0252 277.386 26.5252 276.531 27.5126C275.658 28.4999 274.348 28.9936 272.601 28.9936C270.873 28.9936 269.582 28.4999 268.709 27.5126C267.835 26.5252 267.417 25.0252 267.417 23.0126V6.26575H260.069V22.8797C260.069 26.848 261.133 29.81 263.259 31.7847C265.386 33.7594 268.5 34.7468 272.601 34.7468C276.74 34.7468 279.854 33.7594 281.981 31.7847C284.088 29.81 285.152 26.848 285.152 22.8797V6.26575H277.842V23.0126H277.823Z" fill="white"/>
<path d="M313.234 10.5569C312.38 9.17081 311.145 8.10752 309.532 7.36701C307.918 6.62651 305.962 6.26575 303.664 6.26575H290.791V34.329H298.101V24.9683H303.664C305.962 24.9683 307.918 24.6075 309.532 23.867C311.145 23.1265 312.38 22.0632 313.234 20.6771C314.088 19.2911 314.506 17.6012 314.506 15.6265C314.506 13.6328 314.069 11.943 313.234 10.5569ZM305.981 18.5316C305.202 19.1771 304.044 19.4809 302.525 19.4809H298.101V11.7531H302.525C304.063 11.7531 305.202 12.0759 305.981 12.7025C306.759 13.348 307.158 14.3164 307.158 15.6075C307.158 16.9176 306.759 17.886 305.981 18.5316Z" fill="white"/>
</svg>
